<?xml version="1.0" encoding="utf-8"?>
<!-- Generator: Adobe Illustrator 14.0.0, SVG Export Plug-In . SVG Version: 6.00 Build 43363)  -->
<!DOCTYPE svg PUBLIC "-//W3C//DTD SVG 1.1//EN" "http://www.w3.org/Graphics/SVG/1.1/DTD/svg11.dtd">
<svg version="1.1" id="Layer_1" xmlns="http://www.w3.org/2000/svg" xmlns:xlink="http://www.w3.org/1999/xlink" x="0px" y="0px"
	 width="365.272px" height="86.444px" viewBox="0 0 365.272 86.444" enable-background="new 0 0 365.272 86.444"
	 xml:space="preserve">
<g>
	<defs>
		<rect id="SVGID_1_" y="0" width="365.272" height="86.444"/>
	</defs>
	<clipPath id="SVGID_2_">
		<use xlink:href="#SVGID_1_"  overflow="visible"/>
	</clipPath>
	<path clip-path="url(#SVGID_2_)" fill="#5791CD" d="M34.562,61.947c-0.463,0.024-0.939-0.05-1.397-0.234L4.688,50.23
		C1.835,49.079-0.005,46.348,0,43.273c0.006-3.076,1.856-5.8,4.712-6.941l28.518-11.38c1.688-0.667,3.587,0.15,4.256,1.827
		c0.67,1.68-0.148,3.585-1.828,4.256L7.14,42.415c-0.487,0.195-0.59,0.58-0.591,0.869c0,0.29,0.102,0.676,0.588,0.874l28.477,11.481
		c1.677,0.676,2.488,2.584,1.813,4.261C36.934,61.119,35.792,61.881,34.562,61.947"/>
	<path clip-path="url(#SVGID_2_)" fill="#33A736" d="M68.384,41.75c-0.221,0.01-0.447-0.004-0.674-0.041
		c-1.785-0.29-2.996-1.973-2.705-3.758l4.943-30.306c0.084-0.517-0.195-0.804-0.442-0.954c-0.249-0.15-0.63-0.26-1.048,0.054
		L43.94,25.235c-1.447,1.09-3.499,0.8-4.586-0.644c-1.089-1.443-0.801-3.497,0.643-4.586L64.514,1.517
		c2.456-1.85,5.743-2.023,8.376-0.433c2.634,1.589,4.016,4.579,3.521,7.615l-4.943,30.306C71.214,40.563,69.899,41.683,68.384,41.75
		"/>
	<path clip-path="url(#SVGID_2_)" fill="#A1AAAD" d="M69.393,86.281c-1.689,0.074-3.388-0.429-4.812-1.494l-24.575-18.41
		c-1.448-1.085-1.742-3.136-0.657-4.584c1.081-1.449,3.134-1.745,4.583-0.657l24.576,18.41c0.418,0.313,0.8,0.201,1.049,0.051
		c0.247-0.151,0.524-0.438,0.438-0.956l-5.04-30.289c-0.296-1.784,0.909-3.471,2.694-3.768c1.764-0.296,3.47,0.909,3.767,2.693
		l5.04,30.289c0.504,3.034-0.869,6.028-3.497,7.626C71.85,85.867,70.625,86.228,69.393,86.281"/>
	<polygon clip-path="url(#SVGID_2_)" fill="#5791CD" points="146.837,71.384 142.116,71.384 132.347,41.019 132.184,41.019 
		122.415,71.384 117.775,71.384 100.924,26.284 109.958,26.284 119.973,55.591 120.136,55.591 129.497,26.284 135.033,26.284 
		144.395,55.591 144.558,55.591 154.49,26.284 163.526,26.284 	"/>
	<path clip-path="url(#SVGID_2_)" fill="#5791CD" d="M172.581,52.497c2.116,8.711,9.118,12.293,14.816,12.293
		c6.268,0,10.827-3.664,12.862-7.572h8.467c-4.315,11.643-14.653,15.306-21.655,15.306c-12.78,0-22.956-10.991-22.956-23.771
		c0-13.515,10.42-23.691,23.119-23.691c12.211,0,22.875,9.932,22.957,23.121c0,1.465-0.163,3.744-0.244,4.314H172.581z
		 M201.725,45.984c-0.408-6.594-6.432-13.188-14.572-13.188c-8.141,0-14.165,6.594-14.572,13.188H201.725z"/>
	<path clip-path="url(#SVGID_2_)" fill="#33A736" d="M216.623,26.283h7.734v6.921h0.162c4.07-5.862,10.258-8.142,16.038-8.142
		c15.304,0,23.363,12.293,23.363,24.341c0,11.398-8.548,23.12-22.794,23.12c-9.443,0-14.165-4.803-15.874-7.652h-0.163v21.573
		h-8.467V26.283z M239.987,32.796c-8.874,0-15.061,7.653-15.061,15.957c0,9.117,6.757,16.037,15.305,16.037
		c7.978,0,15.224-6.35,15.224-15.875C255.455,40.856,249.185,32.796,239.987,32.796"/>
	<path clip-path="url(#SVGID_2_)" fill="#33A736" d="M307.473,71.385v-7.001h-0.163c-3.256,5.534-9.199,8.14-15.304,8.14
		c-15.225,0-23.935-11.641-23.935-23.526c0-10.991,7.734-23.935,23.935-23.935c6.268,0,12.048,2.605,15.304,7.571h0.163v-6.35h8.466
		v45.102H307.473z M292.006,32.796c-10.42,0-15.469,9.036-15.469,16.119c0,8.142,6.433,15.875,15.387,15.875
		c8.874,0,15.712-7.246,15.712-15.875C307.636,39.31,300.716,32.796,292.006,32.796"/>
	<polygon clip-path="url(#SVGID_2_)" fill="#33A736" points="340.362,86.444 331.57,86.444 338.164,70.488 320.172,26.283 
		329.291,26.283 342.56,61.289 356.155,26.283 365.273,26.283 	"/>
</g>
</svg>
